<?xml version="1.0" encoding="utf-8"?>
<!-- Generator: Adobe Illustrator 26.0.1, SVG Export Plug-In . SVG Version: 6.00 Build 0)  -->
<svg version="1.1" xmlns="http://www.w3.org/2000/svg" xmlns:xlink="http://www.w3.org/1999/xlink" x="0px" y="0px"
	 viewBox="0 0 600 150" style="enable-background:new 0 0 600 150;" xml:space="preserve">
<style type="text/css">
	.st0{fill:#FFDD67;}
	.st1{fill:#EBA352;}
	.st2{fill:#FFC967;}
</style>
<g id="Layer_1">
</g>
<g id="Layer_2">
	<g>
		<g>
			<g>
				<g>
					<path class="st0" d="M466.05,80.41l5.87,1.14l4.83-24.69c0.32-1.66-0.72-3.29-2.34-3.6l-0.02,0c-1.62-0.31-3.2,0.81-3.53,2.51
						L466.05,80.41z"/>
					<path class="st1" d="M474.41,53.26l-0.02,0c-0.18-0.03-0.35-0.05-0.53-0.05c1.32,0.52,2.12,1.98,1.83,3.45l-4.83,24.69
						l1.05,0.2l4.83-24.69C477.07,55.2,476.03,53.57,474.41,53.26z"/>
					<path class="st0" d="M460.07,81.22h7.07V53.95c0-2.06-1.58-3.73-3.53-3.73c-1.95,0-3.54,1.67-3.54,3.73L460.07,81.22
						L460.07,81.22z"/>
					<path class="st1" d="M463.61,50.22c-0.18,0-0.36,0.03-0.53,0.06c1.7,0.27,3,1.81,3,3.67v27.27h1.07V53.95
						C467.14,51.89,465.56,50.22,463.61,50.22z"/>
					<path class="st0" d="M456.3,81.1l5.96-1.55l-6.49-24.84c-0.45-1.73-2.15-2.79-3.8-2.37l-0.01,0c-1.64,0.43-2.61,2.18-2.16,3.92
						L456.3,81.1z"/>
					<path class="st1" d="M451.98,52.34l-0.01,0c-0.17,0.05-0.34,0.11-0.49,0.19c1.47-0.11,2.87,0.89,3.27,2.45l6.49,24.84
						l1.03-0.27l-6.49-24.84C455.32,52.97,453.62,51.91,451.98,52.34z"/>
					<path class="st0" d="M443.55,58.77c-1.41,0.71-1.9,2.47-1.15,3.95l9.93,19.7l5.02-2.52l-9.93-19.7
						C446.67,58.72,444.96,58.06,443.55,58.77z"/>
					<path class="st1" d="M443.55,58.77c-0.17,0.08-0.31,0.18-0.45,0.29c1.3-0.35,2.7,0.31,3.37,1.62l9.93,19.7l0.95-0.48
						l-9.93-19.7C446.67,58.72,444.96,58.06,443.55,58.77z"/>
					<path class="st0" d="M486.8,70.67c-1.17-2.3-4.94-2.19-8.79,2.03c-2.69,2.95-3.26,3.87-5.95,3.86v-3.09
						c0,0-5.78-4.3-17.28-2.34c0,0-6.55,0.92-6.55,4.32c0,0-1.11,8.33,1.2,13.56c3.44,7.8,21.13,9.85,26.71-3.42
						c1.11-2.64,3.36-4.6,5.37-7.07C483.94,75.55,488.08,73.19,486.8,70.67z"/>
					<path class="st1" d="M486.8,70.67c-0.22-0.44-0.54-0.78-0.93-1.04c0.06,0.09,0.13,0.19,0.18,0.29
						c1.28,2.52-2.87,4.88-5.29,7.86c-2.01,2.47-4.26,4.43-5.37,7.07c-4.84,11.51-18.77,11.49-24.63,6.2
						c5.33,6.01,20.33,6.57,25.38-5.45c1.11-2.64,3.36-4.6,5.37-7.07C483.94,75.55,488.08,73.19,486.8,70.67z"/>
					<path class="st1" d="M472.91,76.53c-4.9-1.8-13.54,1.51-12.34,10.24c0-8.17,7.42-10.2,11.5-10.2
						C472.55,76.57,472.91,76.53,472.91,76.53z"/>

						<animateTransform attributeName="transform" id='rotate'
						type="rotate"
						from="-0.5"
						to="0.5"
						begin="0s;rotateBack.end"
						dur="0.7s"
					/>
				</g>
				<animateTransform attributeName="transform" id='rotateBack'
						type="rotate"
						from="0.5"
						to="-0.5"
						begin="rotate.end"
						dur="0.7s"
					/>
			</g>
		</g>
		<g>
			<g>
				<path class="st2" d="M134.8,49.41v26.18h-3.94V52.79h-12.32v22.81h-3.94V49.41H134.8z"/>
				<path class="st2" d="M140.53,82.96v-27h3.73v3.18h0.32c0.22-0.41,0.54-0.88,0.96-1.42c0.42-0.54,1-1.01,1.74-1.41
					c0.74-0.4,1.72-0.61,2.94-0.61c1.59,0,3,0.4,4.24,1.2c1.24,0.8,2.22,1.96,2.93,3.46c0.71,1.51,1.07,3.32,1.07,5.45
					s-0.35,3.94-1.06,5.45c-0.71,1.51-1.68,2.68-2.92,3.49s-2.65,1.22-4.23,1.22c-1.19,0-2.17-0.2-2.92-0.6
					c-0.75-0.4-1.34-0.87-1.77-1.41s-0.75-1.01-0.98-1.43h-0.23v10.42H140.53z M144.27,65.77c0,1.38,0.2,2.59,0.6,3.63
					c0.4,1.04,0.98,1.85,1.74,2.44c0.76,0.58,1.69,0.88,2.79,0.88c1.14,0,2.1-0.3,2.86-0.91c0.77-0.61,1.35-1.44,1.75-2.49
					c0.4-1.05,0.59-2.23,0.59-3.54c0-1.3-0.19-2.46-0.58-3.49c-0.39-1.03-0.97-1.85-1.74-2.44c-0.77-0.6-1.73-0.9-2.88-0.9
					c-1.11,0-2.04,0.29-2.81,0.86c-0.76,0.57-1.34,1.37-1.73,2.39C144.47,63.22,144.27,64.41,144.27,65.77z"/>
				<path class="st2" d="M166.49,70.24l8.65-14.28h4.12v19.64h-3.75V61.3l-8.62,14.29h-4.15V55.96h3.75V70.24z"/>
				<path class="st2" d="M184.4,75.59V55.96h8.14c2.22,0,3.97,0.47,5.27,1.41s1.94,2.22,1.94,3.83c0,1.15-0.37,2.06-1.1,2.74
					c-0.73,0.67-1.7,1.12-2.91,1.35c0.88,0.1,1.68,0.36,2.42,0.79s1.32,0.99,1.77,1.69c0.45,0.71,0.67,1.55,0.67,2.53
					c0,1.04-0.27,1.96-0.81,2.75c-0.54,0.8-1.31,1.42-2.33,1.87c-1.02,0.45-2.24,0.67-3.68,0.67H184.4z M187.99,64.14h4.59
					c0.72,0,1.33-0.1,1.85-0.31s0.91-0.5,1.19-0.88c0.28-0.38,0.42-0.83,0.42-1.35c0-0.76-0.31-1.35-0.93-1.78
					c-0.62-0.43-1.47-0.64-2.56-0.64h-4.55V64.14z M187.99,72.4h5.79c0.95,0,1.69-0.23,2.22-0.68c0.54-0.45,0.81-1.07,0.81-1.84
					c0-0.91-0.27-1.63-0.81-2.15c-0.54-0.52-1.28-0.79-2.22-0.79h-5.79V72.4z"/>
				<path class="st2" d="M213.24,75.99c-1.94,0-3.6-0.42-4.99-1.25s-2.47-2-3.22-3.52s-1.13-3.29-1.13-5.32
					c0-2.01,0.38-3.78,1.13-5.32c0.75-1.53,1.81-2.73,3.17-3.59c1.36-0.86,2.95-1.29,4.77-1.29c1.11,0,2.18,0.18,3.22,0.55
					c1.04,0.37,1.97,0.94,2.8,1.73c0.83,0.78,1.48,1.8,1.96,3.05c0.48,1.25,0.72,2.76,0.72,4.54v1.36h-15.61v-2.86h11.86
					c0-1.01-0.2-1.9-0.61-2.68s-0.98-1.4-1.72-1.85s-1.6-0.68-2.59-0.68c-1.07,0-2.01,0.26-2.81,0.79c-0.8,0.52-1.41,1.21-1.84,2.05
					c-0.43,0.84-0.65,1.75-0.65,2.73v2.24c0,1.31,0.23,2.43,0.7,3.35c0.46,0.92,1.11,1.62,1.95,2.1c0.83,0.48,1.81,0.72,2.93,0.72
					c0.72,0,1.39-0.1,1.98-0.31c0.6-0.21,1.11-0.52,1.55-0.94c0.43-0.42,0.77-0.93,1-1.55l3.62,0.65c-0.29,1.07-0.81,2-1.55,2.79
					s-1.68,1.41-2.8,1.85S214.67,75.99,213.24,75.99z"/>
				<path class="st2" d="M224.82,59.26v-3.3h16.57v3.3h-6.41v16.34h-3.73V59.26H224.82z"/>
				<path class="st2" d="M250.4,72.01l-0.19,1.39c-0.13,1.02-0.34,2.09-0.65,3.2c-0.3,1.11-0.61,2.15-0.93,3.1
					c-0.32,0.95-0.58,1.71-0.79,2.28h-2.71c0.11-0.53,0.26-1.24,0.46-2.14c0.2-0.9,0.39-1.9,0.58-3.01
					c0.19-1.11,0.33-2.24,0.42-3.39l0.13-1.43H250.4z"/>
				<path class="st2" d="M264.15,75.59l5.54-9.92h3.91l-5.54,9.92H264.15z M277.03,75.59V59.22h-4.71c-1.12,0-1.99,0.26-2.61,0.78
					c-0.62,0.52-0.93,1.2-0.93,2.05c0,0.84,0.29,1.51,0.86,2.01c0.58,0.51,1.38,0.76,2.42,0.76h6.07v3.09h-6.07
					c-1.45,0-2.7-0.24-3.75-0.72c-1.05-0.48-1.86-1.17-2.43-2.05c-0.57-0.89-0.85-1.93-0.85-3.14c0-1.24,0.29-2.3,0.88-3.2
					c0.58-0.9,1.42-1.6,2.52-2.09c1.09-0.49,2.39-0.74,3.89-0.74h8.3v19.64H277.03z"/>
				<path class="st2" d="M293.59,81.92v-9.68h1.73c0.59-0.49,1.14-1.2,1.65-2.11c0.51-0.91,0.95-2.14,1.3-3.69
					c0.36-1.55,0.6-3.54,0.74-5.97l0.61-11.06h16.15v22.83h2.97v9.64h-3.78v-6.29h-17.58v6.33H293.59z M299.97,72.24h12.02V52.81
					h-8.78l-0.41,7.66c-0.11,1.85-0.29,3.51-0.54,4.99c-0.25,1.47-0.57,2.78-0.96,3.91C300.9,70.49,300.46,71.45,299.97,72.24z"/>
				<path class="st2" d="M328.46,76.03c-1.24,0-2.37-0.23-3.38-0.7s-1.8-1.14-2.38-2.03c-0.58-0.89-0.88-1.97-0.88-3.26
					c0-1.11,0.21-2.02,0.64-2.74c0.43-0.72,1-1.28,1.73-1.7c0.72-0.42,1.53-0.73,2.43-0.95c0.89-0.21,1.81-0.38,2.74-0.49
					c1.18-0.14,2.13-0.25,2.86-0.34c0.73-0.09,1.27-0.24,1.6-0.44c0.33-0.2,0.5-0.54,0.5-1v-0.09c0-1.12-0.31-1.98-0.94-2.6
					c-0.63-0.61-1.56-0.92-2.79-0.92c-1.29,0-2.3,0.28-3.04,0.85c-0.74,0.57-1.25,1.2-1.53,1.89l-3.59-0.82
					c0.43-1.19,1.05-2.16,1.87-2.9c0.82-0.74,1.77-1.27,2.84-1.61c1.07-0.34,2.2-0.5,3.39-0.5c0.78,0,1.62,0.09,2.5,0.27
					c0.88,0.18,1.71,0.52,2.48,1c0.77,0.49,1.4,1.18,1.9,2.08c0.49,0.9,0.74,2.06,0.74,3.5v13.04h-3.73v-2.68h-0.15
					c-0.25,0.49-0.62,0.98-1.11,1.46c-0.49,0.48-1.13,0.87-1.9,1.19C330.47,75.87,329.55,76.03,328.46,76.03z M329.29,72.96
					c1.06,0,1.96-0.21,2.72-0.63c0.75-0.42,1.33-0.97,1.73-1.64c0.4-0.68,0.59-1.4,0.59-2.18v-2.53c-0.14,0.14-0.4,0.26-0.79,0.38
					c-0.39,0.11-0.83,0.21-1.32,0.29c-0.5,0.08-0.98,0.15-1.45,0.22s-0.86,0.12-1.18,0.16c-0.74,0.09-1.42,0.25-2.03,0.47
					s-1.09,0.54-1.46,0.95c-0.36,0.41-0.54,0.96-0.54,1.64c0,0.95,0.35,1.66,1.05,2.14C327.32,72.72,328.21,72.96,329.29,72.96z"/>
				<path class="st2" d="M346.99,55.96v19.64h-3.75V55.96H346.99z M356.55,64.13v3.31h-10.64v-3.31H356.55z M359.22,55.96v19.64
					h-3.73V55.96H359.22z"/>
				<path class="st2" d="M368.07,70.24l8.65-14.28h4.12v19.64h-3.75V61.3l-8.62,14.29h-4.16V55.96h3.75V70.24z"/>
				<path class="st2" d="M384.43,75.59l-0.01-3.31h0.7c0.55,0,1-0.12,1.37-0.35c0.37-0.23,0.68-0.63,0.91-1.2
					c0.24-0.56,0.42-1.34,0.55-2.33s0.22-2.24,0.28-3.75l0.35-8.69h13.7v19.64h-3.75V59.26h-6.42l-0.31,6.67
					c-0.08,1.62-0.24,3.03-0.49,4.24c-0.25,1.21-0.62,2.22-1.09,3.02c-0.48,0.81-1.09,1.41-1.84,1.8c-0.75,0.4-1.66,0.59-2.74,0.59
					H384.43z"/>
				<path class="st2" d="M413.09,76.03c-1.24,0-2.37-0.23-3.38-0.7s-1.8-1.14-2.38-2.03c-0.58-0.89-0.88-1.97-0.88-3.26
					c0-1.11,0.21-2.02,0.64-2.74c0.43-0.72,1-1.28,1.73-1.7c0.72-0.42,1.53-0.73,2.43-0.95c0.89-0.21,1.81-0.38,2.74-0.49
					c1.18-0.14,2.13-0.25,2.86-0.34c0.73-0.09,1.27-0.24,1.6-0.44c0.33-0.2,0.5-0.54,0.5-1v-0.09c0-1.12-0.31-1.98-0.94-2.6
					c-0.63-0.61-1.56-0.92-2.79-0.92c-1.29,0-2.3,0.28-3.04,0.85c-0.74,0.57-1.25,1.2-1.53,1.89l-3.59-0.82
					c0.43-1.19,1.05-2.16,1.87-2.9c0.82-0.74,1.77-1.27,2.84-1.61c1.07-0.34,2.2-0.5,3.39-0.5c0.78,0,1.62,0.09,2.5,0.27
					c0.88,0.18,1.71,0.52,2.48,1c0.77,0.49,1.4,1.18,1.9,2.08c0.49,0.9,0.74,2.06,0.74,3.5v13.04h-3.73v-2.68h-0.15
					c-0.25,0.49-0.62,0.98-1.11,1.46c-0.49,0.48-1.13,0.87-1.9,1.19C415.1,75.87,414.18,76.03,413.09,76.03z M413.92,72.96
					c1.06,0,1.96-0.21,2.72-0.63c0.75-0.42,1.33-0.97,1.73-1.64c0.4-0.68,0.59-1.4,0.59-2.18v-2.53c-0.14,0.14-0.4,0.26-0.79,0.38
					c-0.39,0.11-0.83,0.21-1.32,0.29c-0.5,0.08-0.98,0.15-1.45,0.22s-0.86,0.12-1.18,0.16c-0.74,0.09-1.42,0.25-2.03,0.47
					s-1.09,0.54-1.46,0.95c-0.36,0.41-0.54,0.96-0.54,1.64c0,0.95,0.35,1.66,1.05,2.14C411.95,72.72,412.84,72.96,413.92,72.96z"/>
				<path class="st2" d="M430.59,75.84c-0.71,0-1.31-0.25-1.82-0.75s-0.75-1.1-0.74-1.81c-0.01-0.7,0.24-1.3,0.74-1.8
					c0.5-0.5,1.11-0.75,1.82-0.75c0.69,0,1.29,0.25,1.79,0.75c0.5,0.5,0.76,1.1,0.77,1.8c-0.01,0.47-0.13,0.9-0.36,1.28
					c-0.23,0.39-0.54,0.7-0.93,0.93C431.48,75.72,431.05,75.84,430.59,75.84z M432.69,49.41l-0.33,18.65h-3.54l-0.33-18.65H432.69z"
					/>
			</g>
		</g>
		<g>
			<g>
				<path class="st2" d="M188.33,86.65h1.96v9.61h0.12l6.66-9.61h1.83v13.09h-1.98v-9.6h-0.12l-6.65,9.6h-1.82V86.65z"/>
				<path class="st2" d="M205.8,99.74l2.77-4.96h1.96l-2.77,4.96H205.8z M212.24,99.74v-8.19h-2.35c-0.56,0-0.99,0.13-1.3,0.39
					c-0.31,0.26-0.47,0.6-0.47,1.02c0,0.42,0.14,0.75,0.43,1.01c0.29,0.25,0.69,0.38,1.21,0.38h3.04v1.55h-3.04
					c-0.72,0-1.35-0.12-1.88-0.36c-0.53-0.24-0.93-0.58-1.21-1.03c-0.28-0.44-0.43-0.97-0.43-1.57c0-0.62,0.15-1.15,0.44-1.6
					s0.71-0.8,1.26-1.04c0.55-0.25,1.2-0.37,1.95-0.37h4.15v9.82H212.24z"/>
				<path class="st2" d="M226.23,88.16h2.36c1,0,1.88,0.22,2.66,0.66c0.77,0.44,1.38,1.05,1.82,1.83c0.44,0.79,0.66,1.7,0.66,2.74
					c0,1.03-0.22,1.94-0.66,2.72c-0.44,0.78-1.05,1.39-1.82,1.82c-0.77,0.44-1.66,0.66-2.66,0.66h-2.36c-1,0-1.88-0.22-2.66-0.65
					c-0.78-0.43-1.38-1.04-1.83-1.81c-0.44-0.78-0.66-1.68-0.66-2.72c0-1.04,0.22-1.96,0.67-2.75c0.44-0.79,1.05-1.4,1.82-1.84
					S225.24,88.16,226.23,88.16z M226.23,89.87c-0.68,0-1.26,0.14-1.75,0.43c-0.48,0.28-0.85,0.69-1.11,1.22s-0.38,1.16-0.38,1.9
					c0,0.72,0.13,1.34,0.39,1.86s0.63,0.92,1.11,1.2s1.06,0.42,1.74,0.42h2.37c0.68,0,1.26-0.14,1.74-0.42s0.85-0.68,1.1-1.2
					c0.25-0.52,0.38-1.14,0.38-1.87c0-0.73-0.13-1.36-0.38-1.88c-0.25-0.53-0.62-0.93-1.1-1.21c-0.48-0.29-1.06-0.43-1.74-0.43
					H226.23z M228.39,86.42v13.86h-1.94V86.42H228.39z"/>
				<path class="st2" d="M236.03,103.43v-13.5h1.87v1.59h0.16c0.11-0.2,0.27-0.44,0.48-0.71s0.5-0.5,0.87-0.71
					c0.37-0.2,0.86-0.3,1.47-0.3c0.79,0,1.5,0.2,2.12,0.6c0.62,0.4,1.11,0.98,1.47,1.73c0.36,0.76,0.53,1.66,0.53,2.72
					c0,1.06-0.18,1.97-0.53,2.72c-0.35,0.76-0.84,1.34-1.46,1.75s-1.32,0.61-2.12,0.61c-0.6,0-1.08-0.1-1.46-0.3
					c-0.38-0.2-0.67-0.44-0.89-0.7c-0.21-0.27-0.38-0.51-0.49-0.72h-0.12v5.21H236.03z M237.91,94.84c0,0.69,0.1,1.29,0.3,1.81
					s0.49,0.93,0.87,1.22c0.38,0.29,0.84,0.44,1.39,0.44c0.57,0,1.05-0.15,1.43-0.46s0.67-0.72,0.87-1.24
					c0.2-0.52,0.3-1.11,0.3-1.77c0-0.65-0.1-1.23-0.29-1.75c-0.19-0.52-0.48-0.92-0.87-1.22c-0.39-0.3-0.87-0.45-1.44-0.45
					c-0.55,0-1.02,0.14-1.4,0.43c-0.38,0.29-0.67,0.69-0.87,1.2C238,93.56,237.91,94.15,237.91,94.84z"/>
				<path class="st2" d="M251.28,99.94c-0.92,0-1.72-0.21-2.41-0.63c-0.69-0.42-1.22-1.01-1.6-1.77c-0.38-0.76-0.57-1.64-0.57-2.66
					c0-1.02,0.19-1.91,0.57-2.67c0.38-0.76,0.91-1.36,1.6-1.78c0.69-0.42,1.49-0.63,2.41-0.63c0.92,0,1.72,0.21,2.41,0.63
					c0.69,0.42,1.22,1.01,1.6,1.78c0.38,0.76,0.57,1.65,0.57,2.67c0,1.01-0.19,1.9-0.57,2.66c-0.38,0.76-0.91,1.35-1.6,1.77
					C253,99.73,252.2,99.94,251.28,99.94z M251.29,98.34c0.6,0,1.09-0.16,1.48-0.47c0.39-0.31,0.68-0.73,0.87-1.26
					c0.19-0.52,0.28-1.1,0.28-1.73c0-0.62-0.09-1.2-0.28-1.73c-0.19-0.53-0.48-0.95-0.87-1.27c-0.39-0.32-0.89-0.48-1.48-0.48
					c-0.6,0-1.1,0.16-1.49,0.48c-0.39,0.32-0.69,0.74-0.88,1.27c-0.19,0.53-0.29,1.1-0.29,1.73c0,0.63,0.1,1.21,0.29,1.73
					c0.19,0.53,0.48,0.95,0.88,1.26C250.19,98.18,250.68,98.34,251.29,98.34z"/>
				<path class="st2" d="M259.86,89.93v9.82h-1.87v-9.82H259.86z M264.64,94.01v1.65h-5.32v-1.65H264.64z M265.97,89.93v9.82h-1.87
					v-9.82H265.97z"/>
				<path class="st2" d="M267.97,91.58v-1.65h8.28v1.65h-3.2v8.17h-1.87v-8.17H267.97z"/>
				<path class="st2" d="M282.51,99.94c-0.97,0-1.8-0.21-2.5-0.62c-0.7-0.42-1.23-1-1.61-1.76c-0.38-0.76-0.57-1.64-0.57-2.66
					c0-1.01,0.19-1.89,0.57-2.66c0.38-0.77,0.91-1.37,1.58-1.8c0.68-0.43,1.48-0.64,2.39-0.64c0.55,0,1.09,0.09,1.61,0.28
					c0.52,0.18,0.99,0.47,1.4,0.86c0.41,0.39,0.74,0.9,0.98,1.53c0.24,0.62,0.36,1.38,0.36,2.27v0.68h-7.8v-1.43h5.93
					c0-0.5-0.1-0.95-0.31-1.34c-0.2-0.39-0.49-0.7-0.86-0.92c-0.37-0.23-0.8-0.34-1.29-0.34c-0.54,0-1,0.13-1.4,0.39
					c-0.4,0.26-0.71,0.6-0.92,1.02c-0.21,0.42-0.32,0.88-0.32,1.37v1.12c0,0.66,0.12,1.21,0.35,1.67c0.23,0.46,0.56,0.81,0.97,1.05
					c0.42,0.24,0.91,0.36,1.46,0.36c0.36,0,0.69-0.05,0.99-0.16c0.3-0.1,0.56-0.26,0.77-0.47c0.22-0.21,0.38-0.47,0.5-0.77
					l1.81,0.33c-0.14,0.53-0.4,1-0.78,1.4s-0.84,0.71-1.4,0.93C283.86,99.83,283.23,99.94,282.51,99.94z"/>
				<path class="st2" d="M290.72,89.93v9.82h-1.87v-9.82H290.72z M295.5,94.01v1.65h-5.32v-1.65H295.5z M296.84,89.93v9.82h-1.87
					v-9.82H296.84z"/>
				<path class="st2" d="M298.43,102.58v-4.49h0.8c0.21-0.19,0.38-0.41,0.52-0.67c0.14-0.26,0.26-0.57,0.36-0.93
					c0.1-0.36,0.18-0.78,0.25-1.26c0.07-0.48,0.13-1.03,0.18-1.64l0.31-3.66h6.67v8.16h1.51v4.49h-1.87v-2.83h-6.85v2.83H298.43z
					 M301.28,98.09h4.38v-6.53h-3.09l-0.2,2.03c-0.1,1.03-0.22,1.92-0.37,2.68C301.84,97.03,301.6,97.63,301.28,98.09z"/>
				<path class="st2" d="M316.68,93.38v1.66h-5.8v-1.66H316.68z"/>
				<path class="st2" d="M319.23,103.43v-13.5h1.87v1.59h0.16c0.11-0.2,0.27-0.44,0.48-0.71c0.21-0.27,0.5-0.5,0.87-0.71
					c0.37-0.2,0.86-0.3,1.47-0.3c0.79,0,1.5,0.2,2.12,0.6c0.62,0.4,1.11,0.98,1.47,1.73c0.36,0.76,0.53,1.66,0.53,2.72
					c0,1.06-0.18,1.97-0.53,2.72c-0.35,0.76-0.84,1.34-1.46,1.75c-0.62,0.41-1.32,0.61-2.12,0.61c-0.6,0-1.08-0.1-1.46-0.3
					c-0.38-0.2-0.67-0.44-0.88-0.7c-0.21-0.27-0.38-0.51-0.49-0.72h-0.12v5.21H319.23z M321.1,94.84c0,0.69,0.1,1.29,0.3,1.81
					s0.49,0.93,0.87,1.22c0.38,0.29,0.84,0.44,1.39,0.44c0.57,0,1.05-0.15,1.43-0.46c0.38-0.3,0.67-0.72,0.87-1.24
					c0.2-0.52,0.3-1.11,0.3-1.77c0-0.65-0.1-1.23-0.29-1.75c-0.19-0.52-0.48-0.92-0.87-1.22c-0.39-0.3-0.87-0.45-1.44-0.45
					c-0.55,0-1.02,0.14-1.4,0.43c-0.38,0.29-0.67,0.69-0.87,1.2C321.2,93.56,321.1,94.15,321.1,94.84z"/>
				<path class="st2" d="M333.2,99.96c-0.62,0-1.18-0.12-1.69-0.35c-0.5-0.23-0.9-0.57-1.19-1.01c-0.29-0.44-0.44-0.99-0.44-1.63
					c0-0.55,0.11-1.01,0.32-1.37c0.21-0.36,0.5-0.64,0.86-0.85s0.77-0.37,1.21-0.47c0.45-0.11,0.9-0.19,1.37-0.24
					c0.59-0.07,1.06-0.12,1.43-0.17c0.37-0.04,0.63-0.12,0.8-0.22s0.25-0.27,0.25-0.5V93.1c0-0.56-0.16-0.99-0.47-1.3
					c-0.31-0.31-0.78-0.46-1.4-0.46c-0.64,0-1.15,0.14-1.52,0.43c-0.37,0.28-0.62,0.6-0.76,0.94l-1.8-0.41
					c0.21-0.6,0.53-1.08,0.94-1.45c0.41-0.37,0.88-0.64,1.42-0.81s1.1-0.25,1.69-0.25c0.39,0,0.81,0.04,1.25,0.14
					c0.44,0.09,0.85,0.26,1.24,0.5c0.39,0.24,0.7,0.59,0.95,1.04s0.37,1.03,0.37,1.75v6.52h-1.87V98.4h-0.08
					c-0.12,0.25-0.31,0.49-0.56,0.73s-0.57,0.44-0.95,0.59C334.2,99.88,333.74,99.96,333.2,99.96z M333.61,98.43
					c0.53,0,0.98-0.1,1.36-0.31s0.67-0.48,0.86-0.82c0.2-0.34,0.3-0.7,0.3-1.09v-1.27c-0.07,0.07-0.2,0.13-0.39,0.19
					c-0.19,0.06-0.41,0.11-0.66,0.15s-0.49,0.08-0.72,0.11c-0.23,0.03-0.43,0.06-0.59,0.08c-0.37,0.05-0.71,0.12-1.01,0.24
					c-0.3,0.11-0.55,0.27-0.73,0.47c-0.18,0.21-0.27,0.48-0.27,0.82c0,0.47,0.17,0.83,0.52,1.07S333.07,98.43,333.61,98.43z"/>
				<path class="st2" d="M340,97.15h1.96c0.03,0.4,0.21,0.71,0.55,0.93c0.34,0.22,0.78,0.33,1.32,0.33c0.55,0,1.02-0.12,1.41-0.36
					s0.58-0.6,0.58-1.1c0-0.3-0.07-0.56-0.22-0.78c-0.15-0.22-0.35-0.4-0.62-0.52s-0.58-0.19-0.94-0.19h-1.6v-1.5h1.6
					c0.54,0,0.95-0.12,1.21-0.37c0.27-0.25,0.4-0.55,0.4-0.93c0-0.4-0.14-0.72-0.43-0.97c-0.29-0.24-0.69-0.37-1.2-0.37
					c-0.52,0-0.95,0.12-1.3,0.35c-0.35,0.23-0.53,0.53-0.54,0.9h-1.93c0.01-0.55,0.18-1.03,0.5-1.45c0.32-0.42,0.76-0.74,1.3-0.97
					c0.55-0.23,1.17-0.35,1.87-0.35c0.73,0,1.36,0.12,1.89,0.35c0.53,0.23,0.94,0.56,1.24,0.97c0.29,0.41,0.44,0.89,0.44,1.43
					c0,0.54-0.16,0.98-0.48,1.33c-0.32,0.34-0.74,0.59-1.26,0.74v0.1c0.38,0.03,0.72,0.14,1.01,0.34c0.29,0.21,0.52,0.48,0.69,0.81
					c0.17,0.34,0.25,0.72,0.25,1.14c0,0.6-0.17,1.12-0.5,1.56c-0.33,0.44-0.79,0.78-1.37,1.01c-0.58,0.24-1.25,0.36-1.99,0.36
					c-0.72,0-1.37-0.12-1.95-0.34c-0.57-0.23-1.03-0.55-1.36-0.97C340.2,98.21,340.03,97.72,340,97.15z"/>
				<path class="st2" d="M349.68,103.43v-13.5h1.87v1.59h0.16c0.11-0.2,0.27-0.44,0.48-0.71c0.21-0.27,0.5-0.5,0.87-0.71
					c0.37-0.2,0.86-0.3,1.47-0.3c0.79,0,1.5,0.2,2.12,0.6c0.62,0.4,1.11,0.98,1.47,1.73c0.36,0.76,0.53,1.66,0.53,2.72
					c0,1.06-0.18,1.97-0.53,2.72c-0.35,0.76-0.84,1.34-1.46,1.75c-0.62,0.41-1.32,0.61-2.12,0.61c-0.6,0-1.08-0.1-1.46-0.3
					c-0.38-0.2-0.67-0.44-0.88-0.7c-0.21-0.27-0.38-0.51-0.49-0.72h-0.12v5.21H349.68z M351.55,94.84c0,0.69,0.1,1.29,0.3,1.81
					s0.49,0.93,0.87,1.22c0.38,0.29,0.84,0.44,1.39,0.44c0.57,0,1.05-0.15,1.43-0.46c0.38-0.3,0.67-0.72,0.87-1.24
					c0.2-0.52,0.3-1.11,0.3-1.77c0-0.65-0.1-1.23-0.29-1.75c-0.19-0.52-0.48-0.92-0.87-1.22c-0.39-0.3-0.87-0.45-1.44-0.45
					c-0.55,0-1.02,0.14-1.4,0.43c-0.38,0.29-0.67,0.69-0.87,1.2C351.65,93.56,351.55,94.15,351.55,94.84z"/>
				<path class="st2" d="M363.64,99.96c-0.62,0-1.18-0.12-1.69-0.35c-0.5-0.23-0.9-0.57-1.19-1.01c-0.29-0.44-0.44-0.99-0.44-1.63
					c0-0.55,0.11-1.01,0.32-1.37c0.21-0.36,0.5-0.64,0.86-0.85s0.77-0.37,1.21-0.47c0.45-0.11,0.9-0.19,1.37-0.24
					c0.59-0.07,1.06-0.12,1.43-0.17c0.37-0.04,0.63-0.12,0.8-0.22s0.25-0.27,0.25-0.5V93.1c0-0.56-0.16-0.99-0.47-1.3
					c-0.31-0.31-0.78-0.46-1.4-0.46c-0.64,0-1.15,0.14-1.52,0.43c-0.37,0.28-0.62,0.6-0.76,0.94l-1.8-0.41
					c0.21-0.6,0.53-1.08,0.94-1.45c0.41-0.37,0.88-0.64,1.42-0.81s1.1-0.25,1.69-0.25c0.39,0,0.81,0.04,1.25,0.14
					c0.44,0.09,0.85,0.26,1.24,0.5c0.39,0.24,0.7,0.59,0.95,1.04s0.37,1.03,0.37,1.75v6.52h-1.87V98.4h-0.08
					c-0.12,0.25-0.31,0.49-0.56,0.73s-0.57,0.44-0.95,0.59C364.65,99.88,364.18,99.96,363.64,99.96z M364.06,98.43
					c0.53,0,0.98-0.1,1.36-0.31s0.67-0.48,0.86-0.82c0.2-0.34,0.3-0.7,0.3-1.09v-1.27c-0.07,0.07-0.2,0.13-0.39,0.19
					c-0.19,0.06-0.41,0.11-0.66,0.15s-0.49,0.08-0.72,0.11c-0.23,0.03-0.43,0.06-0.59,0.08c-0.37,0.05-0.71,0.12-1.01,0.24
					c-0.3,0.11-0.55,0.27-0.73,0.47c-0.18,0.21-0.27,0.48-0.27,0.82c0,0.47,0.17,0.83,0.52,1.07S363.52,98.43,364.06,98.43z"/>
				<path class="st2" d="M378.61,86.27l0.79,1.21c-0.29,0.27-0.63,0.46-1,0.57s-0.8,0.18-1.29,0.21c-0.49,0.03-1.04,0.05-1.67,0.07
					c-0.71,0.02-1.29,0.17-1.75,0.46c-0.46,0.29-0.81,0.7-1.05,1.25c-0.25,0.55-0.4,1.24-0.48,2.07h0.12
					c0.32-0.61,0.76-1.07,1.33-1.37c0.57-0.3,1.21-0.46,1.92-0.46c0.79,0,1.5,0.18,2.12,0.54c0.62,0.36,1.11,0.89,1.46,1.59
					c0.36,0.7,0.53,1.55,0.53,2.55c0,1.02-0.19,1.9-0.56,2.64c-0.37,0.74-0.9,1.31-1.57,1.71c-0.68,0.4-1.47,0.61-2.39,0.61
					s-1.71-0.21-2.39-0.62c-0.68-0.42-1.21-1.03-1.58-1.85s-0.56-1.83-0.56-3.03v-0.97c0-2.24,0.4-3.93,1.2-5.07
					c0.8-1.13,2-1.71,3.59-1.74c0.52-0.01,0.98-0.02,1.38-0.01s0.76-0.01,1.06-0.06S378.4,86.44,378.61,86.27z M375.14,98.34
					c0.53,0,0.99-0.13,1.38-0.41c0.39-0.27,0.68-0.65,0.89-1.15c0.21-0.5,0.31-1.09,0.31-1.77c0-0.66-0.1-1.23-0.31-1.69
					s-0.51-0.82-0.89-1.06c-0.39-0.24-0.85-0.37-1.39-0.37c-0.4,0-0.76,0.07-1.07,0.21c-0.32,0.14-0.58,0.34-0.81,0.61
					s-0.4,0.6-0.52,0.98c-0.12,0.39-0.19,0.83-0.2,1.33c0,1.02,0.23,1.82,0.7,2.42C373.69,98.04,374.33,98.34,375.14,98.34z"/>
				<path class="st2" d="M385.93,99.94c-0.92,0-1.72-0.21-2.41-0.63c-0.69-0.42-1.22-1.01-1.6-1.77c-0.38-0.76-0.57-1.64-0.57-2.66
					c0-1.02,0.19-1.91,0.57-2.67c0.38-0.76,0.91-1.36,1.6-1.78c0.69-0.42,1.49-0.63,2.41-0.63c0.92,0,1.72,0.21,2.41,0.63
					c0.69,0.42,1.22,1.01,1.6,1.78c0.38,0.76,0.57,1.65,0.57,2.67c0,1.01-0.19,1.9-0.57,2.66c-0.38,0.76-0.91,1.35-1.6,1.77
					C387.65,99.73,386.85,99.94,385.93,99.94z M385.93,98.34c0.6,0,1.09-0.16,1.48-0.47c0.39-0.31,0.68-0.73,0.87-1.26
					c0.19-0.52,0.28-1.1,0.28-1.73c0-0.62-0.09-1.2-0.28-1.73c-0.19-0.53-0.48-0.95-0.87-1.27c-0.39-0.32-0.89-0.48-1.48-0.48
					c-0.6,0-1.1,0.16-1.49,0.48c-0.39,0.32-0.69,0.74-0.88,1.27c-0.19,0.53-0.28,1.1-0.28,1.73c0,0.63,0.09,1.21,0.28,1.73
					c0.19,0.53,0.48,0.95,0.88,1.26C384.83,98.18,385.33,98.34,385.93,98.34z"/>
				<path class="st2" d="M392.08,91.58v-1.65h8.28v1.65h-3.2v8.17h-1.87v-8.17H392.08z"/>
				<path class="st2" d="M409.45,94.48v1.65c-0.29,0.12-0.61,0.22-0.93,0.32s-0.67,0.16-1.04,0.21s-0.74,0.08-1.13,0.08
					c-1.21,0-2.18-0.3-2.9-0.89c-0.72-0.6-1.07-1.51-1.07-2.73v-3.21h1.86v3.21c0,0.46,0.09,0.84,0.26,1.13
					c0.17,0.29,0.41,0.5,0.73,0.64s0.69,0.21,1.12,0.21c0.58,0,1.11-0.05,1.59-0.16C408.44,94.82,408.94,94.67,409.45,94.48z
					 M410.27,89.93v9.82h-1.87v-9.82H410.27z"/>
				<path class="st2" d="M414.69,97.07l4.33-7.14h2.06v9.82h-1.87V92.6l-4.31,7.15h-2.08v-9.82h1.87V97.07z"/>
				<path class="st2" d="M423.64,99.74v-9.82h1.91v4.12h0.92l3.24-4.12h2.37l-3.8,4.78l3.85,5.04h-2.37l-2.95-3.92h-1.25v3.92
					H423.64z"/>
			</g>
		</g>
	</g>
</g>
</svg>
