<?xml version="1.0" encoding="utf-8"?>
<!-- Generator: Adobe Illustrator 26.0.1, SVG Export Plug-In . SVG Version: 6.00 Build 0)  -->
<svg version="1.1" id="Layer_1" xmlns="http://www.w3.org/2000/svg" xmlns:xlink="http://www.w3.org/1999/xlink" x="0px" y="0px"
	 viewBox="0 0 600 120" style="enable-background:new 0 0 600 120;" xml:space="preserve">
<style type="text/css">
	.st0{fill:#FFD367;}
	.st1{fill:#FFDD67;}
	.st2{fill:#EBA352;}
</style>
<g>
	<g>
		<g>
			<path class="st0" d="M101.22,28.4v32h-4.81V32.53H81.35V60.4h-4.81v-32H101.22z"/>
			<path class="st0" d="M108.22,69.4v-33h4.56v3.89h0.39c0.27-0.5,0.66-1.08,1.17-1.73c0.51-0.66,1.22-1.23,2.12-1.73
				c0.91-0.49,2.1-0.74,3.59-0.74c1.94,0,3.67,0.49,5.19,1.47c1.52,0.98,2.72,2.39,3.59,4.23c0.87,1.84,1.3,4.06,1.3,6.66
				s-0.43,4.82-1.3,6.66c-0.86,1.85-2.05,3.27-3.56,4.27c-1.51,1-3.23,1.49-5.17,1.49c-1.46,0-2.65-0.25-3.57-0.73
				s-1.64-1.06-2.16-1.72c-0.52-0.66-0.92-1.24-1.2-1.75h-0.28V69.4H108.22z M112.8,48.4c0,1.69,0.24,3.17,0.73,4.44
				c0.49,1.27,1.2,2.26,2.12,2.98c0.93,0.71,2.06,1.07,3.41,1.07c1.4,0,2.56-0.37,3.5-1.12c0.94-0.74,1.65-1.76,2.13-3.04
				s0.73-2.72,0.73-4.33c0-1.58-0.24-3-0.71-4.27c-0.47-1.26-1.18-2.25-2.12-2.98c-0.94-0.73-2.12-1.09-3.52-1.09
				c-1.35,0-2.5,0.35-3.43,1.05c-0.93,0.7-1.64,1.67-2.12,2.92C113.04,45.28,112.8,46.74,112.8,48.4z"/>
			<path class="st0" d="M139.96,53.86l10.58-17.45h5.03v24h-4.58V42.93L140.46,60.4h-5.08v-24h4.58V53.86z"/>
			<path class="st0" d="M161.85,60.4v-24h9.95c2.71,0,4.85,0.58,6.44,1.73c1.58,1.15,2.38,2.71,2.38,4.68
				c0,1.41-0.45,2.52-1.34,3.34c-0.9,0.82-2.08,1.38-3.56,1.66c1.07,0.12,2.06,0.45,2.95,0.96c0.9,0.52,1.62,1.21,2.16,2.07
				c0.55,0.87,0.82,1.9,0.82,3.09c0,1.27-0.33,2.39-0.98,3.37c-0.66,0.97-1.61,1.73-2.85,2.28c-1.25,0.55-2.74,0.82-4.49,0.82
				H161.85z M166.24,46.4h5.61c0.88,0,1.63-0.12,2.26-0.38c0.63-0.25,1.11-0.61,1.45-1.07c0.34-0.46,0.51-1.01,0.51-1.65
				c0-0.93-0.38-1.65-1.13-2.17c-0.76-0.52-1.8-0.78-3.13-0.78h-5.56V46.4z M166.24,56.5h7.08c1.16,0,2.06-0.28,2.72-0.83
				c0.66-0.55,0.98-1.3,0.98-2.25c0-1.11-0.33-1.99-0.98-2.63s-1.56-0.96-2.72-0.96h-7.08V56.5z"/>
			<path class="st0" d="M197.1,60.89c-2.36,0-4.4-0.51-6.1-1.52s-3.02-2.45-3.94-4.3c-0.92-1.85-1.38-4.02-1.38-6.51
				c0-2.46,0.46-4.62,1.38-6.5s2.21-3.34,3.88-4.39c1.66-1.05,3.61-1.58,5.84-1.58c1.35,0,2.67,0.22,3.94,0.67
				c1.27,0.45,2.41,1.15,3.42,2.11c1.01,0.96,1.81,2.2,2.39,3.73c0.58,1.53,0.88,3.38,0.88,5.55v1.66h-19.08v-3.5h14.5
				c0-1.23-0.25-2.32-0.75-3.27s-1.2-1.71-2.1-2.26c-0.9-0.55-1.96-0.83-3.16-0.83c-1.31,0-2.46,0.32-3.43,0.96
				c-0.97,0.64-1.72,1.47-2.25,2.5c-0.53,1.03-0.79,2.14-0.79,3.34v2.73c0,1.6,0.28,2.97,0.85,4.09c0.57,1.12,1.36,1.98,2.38,2.57
				c1.02,0.59,2.21,0.88,3.58,0.88c0.89,0,1.69-0.13,2.42-0.38c0.73-0.25,1.36-0.64,1.89-1.15c0.53-0.51,0.94-1.14,1.22-1.89
				l4.42,0.8c-0.35,1.3-0.99,2.44-1.9,3.41c-0.91,0.97-2.05,1.73-3.42,2.27C200.41,60.62,198.85,60.89,197.1,60.89z"/>
			<path class="st0" d="M211.25,40.43V36.4h20.25v4.03h-7.83V60.4h-4.56V40.43H211.25z"/>
			<path class="st0" d="M242.52,56.03l-0.23,1.7c-0.16,1.25-0.42,2.55-0.79,3.91c-0.37,1.36-0.75,2.62-1.14,3.79
				s-0.71,2.09-0.96,2.78h-3.31c0.14-0.65,0.32-1.52,0.56-2.62c0.24-1.1,0.47-2.33,0.7-3.68c0.23-1.35,0.4-2.73,0.52-4.14l0.16-1.75
				H242.52z"/>
			<path class="st0" d="M259.32,60.4l6.77-12.12h4.78L264.1,60.4H259.32z M275.07,60.4V40.39h-5.75c-1.37,0-2.43,0.32-3.19,0.95
				c-0.76,0.64-1.14,1.47-1.14,2.5c0,1.02,0.35,1.84,1.05,2.46c0.7,0.62,1.69,0.93,2.96,0.93h7.42v3.78H269
				c-1.77,0-3.3-0.29-4.59-0.88c-1.29-0.59-2.28-1.42-2.97-2.51c-0.69-1.08-1.04-2.36-1.04-3.84c0-1.51,0.36-2.81,1.07-3.91
				c0.71-1.1,1.74-1.95,3.08-2.55c1.34-0.6,2.92-0.91,4.76-0.91h10.14v24H275.07z"/>
			<path class="st0" d="M295.3,68.14V56.31h2.11c0.72-0.6,1.39-1.46,2.02-2.58c0.62-1.11,1.16-2.62,1.59-4.52
				c0.44-1.9,0.74-4.33,0.91-7.3l0.75-13.52h19.73v27.91h3.62v11.78h-4.62V60.4h-21.48v7.73H295.3z M303.1,56.31h14.69V32.56h-10.73
				l-0.5,9.36c-0.14,2.26-0.36,4.29-0.66,6.09c-0.31,1.8-0.7,3.39-1.17,4.77C304.24,54.17,303.7,55.34,303.1,56.31z"/>
			<path class="st0" d="M337.93,60.93c-1.52,0-2.9-0.28-4.12-0.85c-1.23-0.57-2.2-1.39-2.91-2.48c-0.71-1.08-1.07-2.41-1.07-3.98
				c0-1.35,0.26-2.47,0.78-3.34c0.52-0.88,1.22-1.57,2.11-2.08c0.88-0.51,1.88-0.9,2.97-1.16c1.09-0.26,2.21-0.46,3.34-0.59
				c1.44-0.17,2.6-0.3,3.5-0.41c0.89-0.11,1.55-0.29,1.95-0.54s0.61-0.66,0.61-1.22v-0.11c0-1.36-0.38-2.42-1.15-3.17
				s-1.9-1.12-3.41-1.12c-1.57,0-2.81,0.35-3.71,1.04c-0.9,0.69-1.52,1.46-1.87,2.3l-4.39-1c0.52-1.46,1.28-2.64,2.29-3.54
				c1-0.9,2.16-1.56,3.48-1.97c1.31-0.41,2.69-0.62,4.14-0.62c0.96,0,1.98,0.11,3.05,0.34c1.08,0.22,2.09,0.63,3.03,1.23
				c0.94,0.59,1.71,1.44,2.32,2.54c0.6,1.1,0.91,2.52,0.91,4.27V60.4h-4.56v-3.28h-0.19c-0.3,0.6-0.76,1.2-1.36,1.78
				c-0.61,0.58-1.38,1.07-2.33,1.45C340.38,60.74,339.25,60.93,337.93,60.93z M338.94,57.18c1.29,0,2.4-0.25,3.32-0.77
				c0.92-0.51,1.62-1.18,2.11-2.01s0.73-1.72,0.73-2.66v-3.09c-0.17,0.17-0.49,0.32-0.96,0.46c-0.47,0.14-1.01,0.26-1.62,0.36
				c-0.61,0.1-1.19,0.19-1.77,0.27c-0.57,0.08-1.05,0.14-1.44,0.2c-0.91,0.12-1.73,0.31-2.48,0.58c-0.75,0.27-1.34,0.66-1.78,1.16
				c-0.44,0.51-0.66,1.17-0.66,2.01c0,1.16,0.43,2.03,1.28,2.62C336.53,56.89,337.62,57.18,338.94,57.18z"/>
			<path class="st0" d="M360.57,36.4v24h-4.58v-24H360.57z M372.25,46.39v4.05h-13v-4.05H372.25z M375.52,36.4v24h-4.56v-24H375.52z
				"/>
			<path class="st0" d="M386.33,53.86l10.58-17.45h5.03v24h-4.58V42.93L386.83,60.4h-5.08v-24h4.58V53.86z"/>
			<path class="st0" d="M406.33,60.4l-0.02-4.05h0.86c0.67,0,1.23-0.14,1.68-0.43c0.45-0.29,0.83-0.77,1.12-1.46
				s0.52-1.64,0.67-2.85c0.16-1.21,0.27-2.74,0.34-4.59l0.42-10.62h16.75v24h-4.58V40.43h-7.84l-0.38,8.16
				c-0.09,1.98-0.29,3.71-0.6,5.19c-0.31,1.48-0.75,2.71-1.34,3.7s-1.33,1.72-2.25,2.2s-2.03,0.73-3.34,0.73H406.33z"/>
			<path class="st0" d="M441.36,60.93c-1.52,0-2.9-0.28-4.12-0.85s-2.2-1.39-2.91-2.48c-0.71-1.08-1.07-2.41-1.07-3.98
				c0-1.35,0.26-2.47,0.78-3.34s1.22-1.57,2.11-2.08c0.88-0.51,1.88-0.9,2.97-1.16c1.09-0.26,2.21-0.46,3.34-0.59
				c1.44-0.17,2.6-0.3,3.5-0.41s1.55-0.29,1.95-0.54s0.61-0.66,0.61-1.22v-0.11c0-1.36-0.38-2.42-1.15-3.17s-1.9-1.12-3.41-1.12
				c-1.57,0-2.81,0.35-3.71,1.04c-0.9,0.69-1.52,1.46-1.87,2.3l-4.39-1c0.52-1.46,1.28-2.64,2.29-3.54c1.01-0.9,2.16-1.56,3.48-1.97
				c1.31-0.41,2.69-0.62,4.14-0.62c0.96,0,1.98,0.11,3.05,0.34c1.08,0.22,2.09,0.63,3.03,1.23s1.72,1.44,2.32,2.54
				c0.6,1.1,0.91,2.52,0.91,4.27V60.4h-4.56v-3.28h-0.19c-0.3,0.6-0.76,1.2-1.36,1.78c-0.6,0.58-1.38,1.07-2.33,1.45
				C443.82,60.74,442.68,60.93,441.36,60.93z M442.38,57.18c1.29,0,2.4-0.25,3.32-0.77c0.92-0.51,1.62-1.18,2.11-2.01
				s0.73-1.72,0.73-2.66v-3.09c-0.17,0.17-0.49,0.32-0.96,0.46s-1.01,0.26-1.62,0.36c-0.6,0.1-1.19,0.19-1.77,0.27
				s-1.05,0.14-1.44,0.2c-0.91,0.12-1.73,0.31-2.48,0.58c-0.74,0.27-1.34,0.66-1.78,1.16c-0.44,0.51-0.66,1.17-0.66,2.01
				c0,1.16,0.43,2.03,1.28,2.62C439.96,56.89,441.05,57.18,442.38,57.18z"/>
			<path class="st0" d="M462.75,60.7c-0.87,0-1.6-0.3-2.22-0.91s-0.92-1.35-0.91-2.21c-0.01-0.85,0.29-1.59,0.91-2.2
				s1.35-0.91,2.22-0.91c0.84,0,1.57,0.3,2.19,0.91s0.93,1.34,0.94,2.2c-0.01,0.57-0.16,1.1-0.45,1.57
				c-0.29,0.47-0.66,0.85-1.13,1.13S463.31,60.7,462.75,60.7z M465.31,28.4l-0.41,22.8h-4.33l-0.41-22.8H465.31z"/>
		</g>
	</g>
	<g>
		<g>
			<path class="st0" d="M168.85,73.52h2.5V85.8h0.16l8.51-12.28h2.34v16.73h-2.52V77.98h-0.16l-8.49,12.27h-2.33V73.52z"/>
			<path class="st0" d="M191.17,90.25l3.54-6.34h2.5l-3.54,6.34H191.17z M199.4,90.25V79.78h-3.01c-0.71,0-1.27,0.17-1.67,0.5
				s-0.6,0.77-0.6,1.31c0,0.53,0.18,0.96,0.55,1.29c0.37,0.32,0.88,0.49,1.55,0.49h3.88v1.98h-3.88c-0.93,0-1.72-0.15-2.4-0.46
				c-0.67-0.31-1.19-0.75-1.55-1.31c-0.36-0.57-0.54-1.24-0.54-2.01c0-0.79,0.19-1.47,0.56-2.05s0.91-1.02,1.61-1.34
				c0.7-0.32,1.53-0.47,2.49-0.47h5.3v12.55H199.4z"/>
			<path class="st0" d="M211.24,90.25V73.52h10.37v2.17h-7.85v5.1h7.11v2.16h-7.11v7.29H211.24z"/>
			<path class="st0" d="M224.52,90.25V77.7h2.36v1.99h0.13c0.23-0.67,0.63-1.21,1.21-1.6s1.24-0.58,1.97-0.58
				c0.15,0,0.33,0,0.54,0.02c0.21,0.01,0.37,0.02,0.49,0.04v2.34c-0.1-0.03-0.27-0.06-0.52-0.09c-0.25-0.04-0.5-0.05-0.75-0.05
				c-0.58,0-1.09,0.12-1.54,0.36s-0.8,0.58-1.07,1c-0.26,0.43-0.39,0.91-0.39,1.46v7.66H224.52z"/>
			<path class="st0" d="M238.65,90.5c-1.18,0-2.2-0.27-3.08-0.81c-0.88-0.54-1.56-1.29-2.04-2.26c-0.48-0.97-0.73-2.1-0.73-3.4
				c0-1.3,0.24-2.44,0.73-3.41c0.48-0.97,1.17-1.73,2.04-2.27c0.88-0.54,1.9-0.81,3.08-0.81c1.18,0,2.2,0.27,3.08,0.81
				c0.88,0.54,1.56,1.3,2.04,2.27c0.48,0.97,0.73,2.11,0.73,3.41c0,1.3-0.24,2.43-0.73,3.4c-0.48,0.97-1.17,1.72-2.04,2.26
				C240.85,90.23,239.82,90.5,238.65,90.5z M238.65,88.45c0.76,0,1.39-0.2,1.9-0.6s0.87-0.94,1.11-1.61
				c0.24-0.67,0.36-1.41,0.36-2.21c0-0.8-0.12-1.54-0.36-2.21c-0.24-0.67-0.61-1.21-1.11-1.62s-1.13-0.61-1.9-0.61
				c-0.77,0-1.4,0.2-1.91,0.61c-0.5,0.41-0.88,0.95-1.12,1.62c-0.24,0.67-0.36,1.41-0.36,2.21c0,0.81,0.12,1.54,0.36,2.21
				s0.62,1.21,1.12,1.61C237.25,88.25,237.89,88.45,238.65,88.45z"/>
			<path class="st0" d="M249.66,82.8v7.45h-2.44V77.7h2.34v2.04h0.16c0.29-0.66,0.74-1.2,1.36-1.6c0.62-0.4,1.4-0.6,2.34-0.6
				c0.85,0,1.6,0.18,2.25,0.54s1.14,0.89,1.49,1.59c0.35,0.7,0.53,1.57,0.53,2.61v7.98h-2.44v-7.69c0-0.91-0.24-1.62-0.71-2.14
				c-0.47-0.51-1.12-0.77-1.95-0.77c-0.57,0-1.07,0.12-1.51,0.37c-0.44,0.25-0.78,0.6-1.04,1.07
				C249.78,81.57,249.66,82.13,249.66,82.8z"/>
			<path class="st0" d="M266.81,77.7v1.96h-6.85V77.7H266.81z M261.79,74.69h2.44v11.87c0,0.47,0.07,0.83,0.21,1.07
				c0.14,0.24,0.33,0.4,0.55,0.48c0.23,0.08,0.47,0.13,0.74,0.13c0.2,0,0.37-0.01,0.51-0.04c0.15-0.03,0.26-0.05,0.34-0.06
				l0.44,2.02c-0.14,0.05-0.34,0.11-0.6,0.17c-0.26,0.06-0.59,0.09-0.98,0.09c-0.64,0.01-1.24-0.1-1.8-0.34
				c-0.56-0.24-1-0.61-1.35-1.11c-0.34-0.5-0.51-1.13-0.51-1.89V74.69z"/>
			<path class="st0" d="M274.91,90.5c-1.24,0-2.3-0.27-3.19-0.8c-0.89-0.53-1.58-1.28-2.06-2.25c-0.48-0.97-0.72-2.1-0.72-3.4
				c0-1.29,0.24-2.42,0.72-3.4c0.48-0.98,1.16-1.75,2.03-2.29c0.87-0.55,1.89-0.83,3.05-0.83c0.71,0,1.39,0.12,2.06,0.35
				c0.66,0.23,1.26,0.6,1.79,1.1c0.53,0.5,0.94,1.15,1.25,1.95c0.31,0.8,0.46,1.77,0.46,2.9v0.87h-9.97v-1.83h7.58
				c0-0.64-0.13-1.21-0.39-1.71c-0.26-0.5-0.63-0.89-1.1-1.18c-0.47-0.29-1.02-0.43-1.65-0.43c-0.69,0-1.28,0.17-1.79,0.5
				s-0.9,0.77-1.18,1.31c-0.27,0.54-0.41,1.12-0.41,1.74v1.43c0,0.84,0.15,1.55,0.44,2.14s0.71,1.04,1.25,1.34s1.16,0.46,1.87,0.46
				c0.46,0,0.88-0.07,1.27-0.2c0.38-0.13,0.71-0.33,0.99-0.6c0.28-0.27,0.49-0.6,0.64-0.99l2.31,0.42
				c-0.19,0.68-0.52,1.28-0.99,1.79c-0.48,0.51-1.07,0.9-1.79,1.18C276.64,90.36,275.82,90.5,274.91,90.5z"/>
			<path class="st0" d="M285.45,82.8v7.45h-2.44V77.7h2.34v2.04h0.16c0.29-0.66,0.74-1.2,1.36-1.6c0.62-0.4,1.4-0.6,2.34-0.6
				c0.85,0,1.6,0.18,2.25,0.54s1.14,0.89,1.49,1.59c0.35,0.7,0.53,1.57,0.53,2.61v7.98h-2.44v-7.69c0-0.91-0.24-1.62-0.71-2.14
				c-0.47-0.51-1.12-0.77-1.95-0.77c-0.57,0-1.07,0.12-1.51,0.37c-0.44,0.25-0.78,0.6-1.04,1.07
				C285.58,81.57,285.45,82.13,285.45,82.8z"/>
			<path class="st0" d="M301.45,90.49c-1.01,0-1.92-0.26-2.71-0.78c-0.79-0.52-1.41-1.26-1.86-2.23c-0.45-0.97-0.67-2.13-0.67-3.48
				c0-1.36,0.23-2.52,0.68-3.48s1.08-1.7,1.87-2.21s1.7-0.77,2.7-0.77c0.78,0,1.41,0.13,1.88,0.39s0.85,0.56,1.11,0.9
				c0.26,0.34,0.47,0.65,0.62,0.91h0.15v-6.22h2.44v16.73h-2.38v-1.95h-0.21c-0.15,0.27-0.36,0.57-0.63,0.92
				c-0.27,0.34-0.65,0.64-1.13,0.9C302.83,90.36,302.21,90.49,301.45,90.49z M301.98,88.41c0.7,0,1.3-0.19,1.78-0.56
				s0.86-0.89,1.11-1.56c0.25-0.66,0.38-1.44,0.38-2.32c0-0.87-0.12-1.63-0.38-2.29c-0.25-0.65-0.62-1.16-1.1-1.53
				c-0.48-0.37-1.08-0.55-1.8-0.55c-0.74,0-1.35,0.19-1.84,0.57c-0.49,0.38-0.86,0.9-1.11,1.56c-0.25,0.66-0.37,1.4-0.37,2.23
				c0,0.84,0.12,1.59,0.38,2.26c0.25,0.67,0.62,1.2,1.11,1.59C300.65,88.21,301.26,88.41,301.98,88.41z"/>
			<path class="st0" d="M318.53,82.12v2.12h-7.42v-2.12H318.53z"/>
			<path class="st0" d="M321.79,94.95V77.7h2.38v2.03h0.2c0.14-0.26,0.35-0.56,0.61-0.91c0.27-0.34,0.64-0.64,1.11-0.9
				s1.1-0.39,1.88-0.39c1.01,0,1.92,0.26,2.71,0.77s1.42,1.25,1.88,2.21c0.45,0.96,0.68,2.12,0.68,3.48c0,1.36-0.23,2.52-0.68,3.48
				c-0.45,0.97-1.07,1.71-1.86,2.23c-0.79,0.52-1.69,0.78-2.7,0.78c-0.76,0-1.38-0.13-1.87-0.38c-0.48-0.26-0.86-0.56-1.13-0.9
				c-0.27-0.34-0.48-0.65-0.63-0.92h-0.15v6.66H321.79z M324.18,83.97c0,0.88,0.13,1.66,0.38,2.32s0.63,1.18,1.11,1.56
				s1.08,0.56,1.78,0.56c0.73,0,1.34-0.19,1.83-0.58s0.86-0.92,1.12-1.59c0.25-0.67,0.38-1.42,0.38-2.26c0-0.83-0.12-1.57-0.37-2.23
				c-0.25-0.66-0.62-1.18-1.11-1.56c-0.49-0.38-1.11-0.57-1.84-0.57c-0.71,0-1.3,0.18-1.79,0.55c-0.49,0.36-0.86,0.87-1.11,1.53
				C324.31,82.34,324.18,83.1,324.18,83.97z"/>
			<path class="st0" d="M339.64,90.52c-0.8,0-1.51-0.15-2.16-0.44c-0.64-0.3-1.15-0.73-1.52-1.29s-0.56-1.26-0.56-2.08
				c0-0.71,0.14-1.29,0.41-1.75s0.64-0.82,1.1-1.09s0.98-0.47,1.55-0.6c0.57-0.14,1.15-0.24,1.75-0.31
				c0.75-0.09,1.36-0.16,1.83-0.22c0.47-0.06,0.81-0.15,1.02-0.28s0.32-0.34,0.32-0.64v-0.06c0-0.71-0.2-1.27-0.6-1.66
				c-0.4-0.39-1-0.59-1.78-0.59c-0.82,0-1.47,0.18-1.94,0.54c-0.47,0.36-0.8,0.76-0.98,1.21l-2.29-0.52
				c0.27-0.76,0.67-1.38,1.2-1.85s1.13-0.81,1.82-1.03c0.69-0.21,1.41-0.32,2.17-0.32c0.5,0,1.03,0.06,1.6,0.18s1.09,0.33,1.58,0.64
				s0.9,0.75,1.21,1.33c0.32,0.58,0.47,1.32,0.47,2.23v8.33h-2.38v-1.72h-0.1c-0.16,0.32-0.4,0.63-0.71,0.93s-0.72,0.56-1.22,0.76
				C340.92,90.42,340.33,90.52,339.64,90.52z M340.17,88.56c0.68,0,1.25-0.13,1.74-0.4c0.48-0.27,0.85-0.62,1.1-1.05
				c0.25-0.43,0.38-0.9,0.38-1.39V84.1c-0.09,0.09-0.25,0.17-0.5,0.24s-0.53,0.14-0.84,0.19c-0.32,0.05-0.62,0.1-0.92,0.14
				c-0.3,0.04-0.55,0.07-0.75,0.1c-0.47,0.06-0.91,0.16-1.29,0.3c-0.39,0.14-0.7,0.34-0.93,0.61c-0.23,0.26-0.35,0.61-0.35,1.05
				c0,0.6,0.22,1.06,0.67,1.37S339.48,88.56,340.17,88.56z"/>
			<path class="st0" d="M348.33,86.93h2.5c0.03,0.51,0.27,0.91,0.7,1.18c0.43,0.28,1,0.42,1.69,0.42c0.7,0,1.3-0.15,1.8-0.45
				c0.5-0.3,0.74-0.77,0.74-1.41c0-0.38-0.09-0.71-0.28-1s-0.45-0.51-0.79-0.67c-0.34-0.16-0.74-0.24-1.21-0.24h-2.04v-1.92h2.04
				c0.69,0,1.21-0.16,1.55-0.47c0.34-0.32,0.51-0.71,0.51-1.18c0-0.51-0.18-0.92-0.55-1.24c-0.37-0.31-0.88-0.47-1.53-0.47
				c-0.66,0-1.22,0.15-1.66,0.45c-0.44,0.3-0.67,0.68-0.69,1.15h-2.47c0.02-0.7,0.23-1.32,0.64-1.85s0.97-0.94,1.67-1.24
				c0.7-0.3,1.5-0.45,2.39-0.45c0.93,0,1.74,0.15,2.42,0.45c0.68,0.3,1.21,0.71,1.58,1.24s0.56,1.14,0.56,1.82
				c0,0.69-0.21,1.26-0.62,1.7s-0.95,0.75-1.6,0.94v0.13c0.48,0.03,0.92,0.18,1.29,0.44c0.38,0.26,0.67,0.61,0.88,1.04
				c0.21,0.43,0.32,0.92,0.32,1.46c0,0.77-0.21,1.43-0.63,1.99c-0.42,0.56-1,0.99-1.75,1.29s-1.59,0.45-2.54,0.45
				c-0.93,0-1.75-0.15-2.49-0.44c-0.73-0.29-1.31-0.7-1.74-1.24C348.59,88.29,348.36,87.66,348.33,86.93z"/>
			<path class="st0" d="M360.69,94.95V77.7h2.38v2.03h0.2c0.14-0.26,0.35-0.56,0.61-0.91c0.27-0.34,0.64-0.64,1.11-0.9
				s1.1-0.39,1.88-0.39c1.01,0,1.92,0.26,2.71,0.77s1.42,1.25,1.88,2.21c0.45,0.96,0.68,2.12,0.68,3.48c0,1.36-0.23,2.52-0.68,3.48
				c-0.45,0.97-1.07,1.71-1.86,2.23c-0.79,0.52-1.69,0.78-2.7,0.78c-0.76,0-1.38-0.13-1.87-0.38c-0.48-0.26-0.86-0.56-1.13-0.9
				c-0.27-0.34-0.48-0.65-0.63-0.92h-0.15v6.66H360.69z M363.09,83.97c0,0.88,0.13,1.66,0.38,2.32s0.63,1.18,1.11,1.56
				s1.08,0.56,1.78,0.56c0.73,0,1.34-0.19,1.83-0.58s0.86-0.92,1.12-1.59c0.25-0.67,0.38-1.42,0.38-2.26c0-0.83-0.12-1.57-0.37-2.23
				c-0.25-0.66-0.62-1.18-1.11-1.56c-0.49-0.38-1.11-0.57-1.84-0.57c-0.71,0-1.3,0.18-1.79,0.55c-0.49,0.36-0.86,0.87-1.11,1.53
				C363.21,82.34,363.09,83.1,363.09,83.97z"/>
			<path class="st0" d="M378.54,90.52c-0.8,0-1.51-0.15-2.16-0.44c-0.64-0.3-1.15-0.73-1.52-1.29s-0.56-1.26-0.56-2.08
				c0-0.71,0.14-1.29,0.41-1.75s0.64-0.82,1.1-1.09s0.98-0.47,1.55-0.6c0.57-0.14,1.15-0.24,1.75-0.31
				c0.75-0.09,1.36-0.16,1.83-0.22c0.47-0.06,0.81-0.15,1.02-0.28s0.32-0.34,0.32-0.64v-0.06c0-0.71-0.2-1.27-0.6-1.66
				c-0.4-0.39-1-0.59-1.78-0.59c-0.82,0-1.47,0.18-1.94,0.54c-0.47,0.36-0.8,0.76-0.98,1.21l-2.29-0.52
				c0.27-0.76,0.67-1.38,1.2-1.85s1.13-0.81,1.82-1.03c0.69-0.21,1.41-0.32,2.17-0.32c0.5,0,1.03,0.06,1.6,0.18s1.09,0.33,1.58,0.64
				s0.9,0.75,1.21,1.33c0.32,0.58,0.47,1.32,0.47,2.23v8.33h-2.38v-1.72h-0.1c-0.16,0.32-0.4,0.63-0.71,0.93s-0.72,0.56-1.22,0.76
				C379.82,90.42,379.23,90.52,378.54,90.52z M379.07,88.56c0.68,0,1.25-0.13,1.74-0.4c0.48-0.27,0.85-0.62,1.1-1.05
				c0.25-0.43,0.38-0.9,0.38-1.39V84.1c-0.09,0.09-0.25,0.17-0.5,0.24s-0.53,0.14-0.84,0.19c-0.32,0.05-0.62,0.1-0.92,0.14
				c-0.3,0.04-0.55,0.07-0.75,0.1c-0.47,0.06-0.91,0.16-1.29,0.3c-0.39,0.14-0.7,0.34-0.93,0.61c-0.23,0.26-0.35,0.61-0.35,1.05
				c0,0.6,0.22,1.06,0.67,1.37S378.38,88.56,379.07,88.56z"/>
			<path class="st0" d="M397.66,73.03l1.01,1.54c-0.38,0.34-0.8,0.59-1.28,0.73c-0.48,0.14-1.02,0.23-1.65,0.27
				c-0.62,0.04-1.33,0.07-2.13,0.09c-0.9,0.03-1.65,0.22-2.23,0.58c-0.58,0.36-1.03,0.9-1.34,1.6c-0.31,0.71-0.52,1.59-0.61,2.65
				h0.16c0.41-0.78,0.98-1.36,1.7-1.75c0.73-0.39,1.54-0.58,2.45-0.58c1.01,0,1.91,0.23,2.7,0.69c0.79,0.46,1.41,1.14,1.87,2.03
				c0.46,0.89,0.68,1.98,0.68,3.26c0,1.3-0.24,2.43-0.71,3.37s-1.15,1.68-2.01,2.19c-0.86,0.51-1.88,0.77-3.05,0.77
				c-1.17,0-2.19-0.27-3.06-0.8c-0.87-0.53-1.54-1.32-2.02-2.37c-0.48-1.04-0.71-2.34-0.71-3.87v-1.24c0-2.87,0.51-5.03,1.54-6.48
				c1.02-1.45,2.55-2.19,4.59-2.23c0.66-0.02,1.25-0.02,1.76-0.01c0.52,0.01,0.97-0.02,1.36-0.07
				C397.07,73.38,397.4,73.24,397.66,73.03z M393.23,88.45c0.68,0,1.27-0.17,1.76-0.52c0.49-0.35,0.87-0.84,1.14-1.47
				s0.4-1.39,0.4-2.25c0-0.85-0.13-1.57-0.4-2.17c-0.27-0.59-0.65-1.05-1.14-1.36c-0.5-0.31-1.09-0.47-1.78-0.47
				c-0.51,0-0.97,0.09-1.37,0.27c-0.4,0.18-0.75,0.44-1.03,0.78c-0.29,0.34-0.51,0.76-0.66,1.25c-0.16,0.49-0.24,1.06-0.25,1.7
				c0,1.3,0.3,2.33,0.89,3.09C391.38,88.07,392.2,88.45,393.23,88.45z"/>
			<path class="st0" d="M407.01,90.5c-1.18,0-2.2-0.27-3.08-0.81s-1.56-1.29-2.04-2.26c-0.48-0.97-0.73-2.1-0.73-3.4
				c0-1.3,0.24-2.44,0.73-3.41c0.49-0.97,1.17-1.73,2.04-2.27s1.9-0.81,3.08-0.81c1.18,0,2.2,0.27,3.08,0.81
				c0.88,0.54,1.56,1.3,2.04,2.27c0.49,0.97,0.73,2.11,0.73,3.41c0,1.3-0.24,2.43-0.73,3.4c-0.48,0.97-1.17,1.72-2.04,2.26
				C409.21,90.23,408.19,90.5,407.01,90.5z M407.02,88.45c0.76,0,1.39-0.2,1.89-0.6s0.87-0.94,1.12-1.61s0.36-1.41,0.36-2.21
				c0-0.8-0.12-1.54-0.36-2.21c-0.24-0.67-0.61-1.21-1.12-1.62s-1.13-0.61-1.89-0.61c-0.77,0-1.4,0.2-1.91,0.61
				c-0.5,0.41-0.88,0.95-1.12,1.62c-0.24,0.67-0.36,1.41-0.36,2.21c0,0.81,0.12,1.54,0.36,2.21s0.62,1.21,1.12,1.61
				C405.62,88.25,406.25,88.45,407.02,88.45z"/>
			<path class="st0" d="M414.88,79.81V77.7h10.58v2.11h-4.09v10.44h-2.38V79.81H414.88z"/>
			<path class="st0" d="M437.08,83.52v2.11c-0.38,0.15-0.77,0.29-1.19,0.4s-0.86,0.21-1.32,0.27c-0.46,0.07-0.94,0.1-1.45,0.1
				c-1.55,0-2.79-0.38-3.7-1.14s-1.37-1.92-1.37-3.49v-4.1h2.38v4.1c0,0.59,0.11,1.08,0.33,1.45s0.53,0.64,0.93,0.82
				c0.4,0.17,0.88,0.26,1.44,0.26c0.74,0,1.41-0.07,2.04-0.21C435.78,83.95,436.42,83.76,437.08,83.52z M438.11,77.7v12.55h-2.38
				V77.7H438.11z"/>
			<path class="st0" d="M443.76,86.82l5.53-9.12h2.63v12.55h-2.39v-9.13l-5.5,9.13h-2.65V77.7h2.39V86.82z"/>
			<path class="st0" d="M455.21,90.25V77.7h2.44v5.26h1.18l4.14-5.26h3.02l-4.86,6.1l4.92,6.44h-3.03l-3.77-5.02h-1.59v5.02H455.21z
				"/>
		</g>
	</g>
	<g>
		<g>
			<g>
				<path class="st1" d="M503.88,65.95l6.12,1.19l5.03-25.72c0.34-1.72-0.75-3.43-2.43-3.75l-0.02,0c-1.68-0.33-3.33,0.84-3.68,2.62
					L503.88,65.95z"/>
				<path class="st2" d="M512.59,37.66l-0.02,0c-0.18-0.04-0.37-0.05-0.55-0.05c1.38,0.54,2.21,2.06,1.91,3.59l-5.03,25.72
					l1.09,0.21l5.03-25.72C515.36,39.69,514.27,37.99,512.59,37.66z"/>
				<path class="st1" d="M497.65,66.79h7.36V38.38c0-2.14-1.65-3.89-3.68-3.89c-2.03,0-3.69,1.74-3.69,3.89L497.65,66.79
					L497.65,66.79z"/>
				<path class="st2" d="M501.33,34.5c-0.19,0-0.37,0.03-0.56,0.06c1.77,0.28,3.13,1.88,3.13,3.82v28.41h1.11V38.38
					C505.02,36.24,503.37,34.5,501.33,34.5z"/>
				<path class="st1" d="M493.72,66.66l6.21-1.62l-6.76-25.88c-0.47-1.81-2.24-2.91-3.96-2.46l-0.01,0
					c-1.71,0.45-2.72,2.27-2.25,4.08L493.72,66.66z"/>
				<path class="st2" d="M489.21,36.71l-0.01,0c-0.18,0.05-0.35,0.12-0.52,0.19c1.53-0.11,2.99,0.93,3.41,2.55l6.76,25.88l1.07-0.28
					l-6.76-25.88C492.7,37.36,490.93,36.26,489.21,36.71z"/>
				<path class="st1" d="M480.43,43.41c-1.47,0.74-1.98,2.57-1.2,4.12l10.35,20.52l5.23-2.63L484.46,44.9
					C483.68,43.35,481.91,42.67,480.43,43.41z"/>
				<path class="st2" d="M480.43,43.41c-0.17,0.09-0.33,0.19-0.47,0.3c1.35-0.37,2.82,0.32,3.51,1.69l10.35,20.52l0.99-0.5
					L484.46,44.9C483.68,43.35,481.91,42.67,480.43,43.41z"/>
				<path class="st1" d="M525.49,55.8c-1.22-2.4-5.15-2.28-9.15,2.12c-2.8,3.07-3.39,4.03-6.2,4.02v-3.22c0,0-6.02-4.48-18-2.44
					c0,0-6.82,0.96-6.82,4.5c0,0-1.16,8.67,1.25,14.13c3.59,8.12,22.01,10.26,27.82-3.56c1.16-2.75,3.5-4.79,5.6-7.37
					C522.51,60.89,526.83,58.43,525.49,55.8z"/>
				<path class="st2" d="M525.49,55.8c-0.23-0.45-0.56-0.82-0.97-1.08c0.07,0.1,0.13,0.19,0.19,0.3c1.34,2.63-2.98,5.08-5.51,8.18
					c-2.1,2.57-4.44,4.62-5.6,7.37c-5.04,11.99-19.55,11.97-25.66,6.46c5.55,6.27,21.18,6.85,26.44-5.68
					c1.16-2.75,3.5-4.79,5.6-7.37C522.51,60.89,526.83,58.43,525.49,55.8z"/>
				<path class="st2" d="M511.02,61.91c-5.1-1.88-14.1,1.57-12.85,10.66c0-8.51,7.73-10.63,11.98-10.63
					C510.65,61.94,511.02,61.91,511.02,61.91z"/>

          <animateTransform attributeName="transform" id='rotate'
						type="rotate"
						from="-0.5"
						to="0.5"
						begin="0s;rotateBack.end"
						dur="0.7s"
					/>
			</g>
      <animateTransform attributeName="transform" id='rotateBack'
						type="rotate"
						from="0.5"
						to="-0.5"
						begin="rotate.end"
						dur="0.7s"
					/>
		</g>
	</g>
</g>
</svg>
